<mxfile host="65bd71144e" modified="2024-06-09T14:01:34.783Z" agent="Mozilla/5.0 (Macintosh; Intel Mac OS X 10_15_7) AppleWebKit/537.36 (KHTML, like Gecko) Code/1.90.0 Chrome/122.0.6261.156 Electron/29.4.0 Safari/537.36" etag="bAMcueetfxC2VilxFN-X" version="24.5.2" type="embed">
    <diagram id="UFSokU2E768_yOcka6vt" name="Page-1">
        <mxGraphModel dx="497" dy="765" grid="1" gridSize="10" guides="1" tooltips="1" connect="1" arrows="1" fold="1" page="1" pageScale="1" pageWidth="827" pageHeight="1169" math="0" shadow="0">
            <root>
                <mxCell id="0"/>
                <mxCell id="1" parent="0"/>
                <mxCell id="9" value="submit/{problemName}" style="edgeStyle=none;html=1;exitX=0.5;exitY=0;exitDx=0;exitDy=0;entryX=0.5;entryY=1;entryDx=0;entryDy=0;" parent="1" edge="1">
                    <mxGeometry relative="1" as="geometry">
                        <mxPoint x="220" y="310" as="sourcePoint"/>
                        <mxPoint x="220" y="210" as="targetPoint"/>
                        <Array as="points">
                            <mxPoint x="260" y="290"/>
                        </Array>
                    </mxGeometry>
                </mxCell>
                <mxCell id="2" value="front" style="rounded=0;whiteSpace=wrap;html=1;" parent="1" vertex="1">
                    <mxGeometry x="130" y="310" width="140" height="90" as="geometry"/>
                </mxCell>
                <mxCell id="7" value="submit" style="edgeStyle=none;html=1;exitX=0.5;exitY=0;exitDx=0;exitDy=0;exitPerimeter=0;entryX=0.5;entryY=1;entryDx=0;entryDy=0;" parent="1" source="3" target="2" edge="1">
                    <mxGeometry relative="1" as="geometry"/>
                </mxCell>
                <mxCell id="3" value="user" style="shape=umlActor;verticalLabelPosition=bottom;verticalAlign=top;html=1;outlineConnect=0;" parent="1" vertex="1">
                    <mxGeometry x="130" y="420" width="30" height="60" as="geometry"/>
                </mxCell>
                <mxCell id="12" style="edgeStyle=none;html=1;entryX=0;entryY=0.5;entryDx=0;entryDy=0;" parent="1" target="11" edge="1">
                    <mxGeometry relative="1" as="geometry">
                        <mxPoint x="260" y="180" as="sourcePoint"/>
                    </mxGeometry>
                </mxCell>
                <mxCell id="14" value="add job" style="edgeLabel;html=1;align=center;verticalAlign=middle;resizable=0;points=[];" parent="12" vertex="1" connectable="0">
                    <mxGeometry x="-0.2453" y="-1" relative="1" as="geometry">
                        <mxPoint as="offset"/>
                    </mxGeometry>
                </mxCell>
                <mxCell id="8" value="backend" style="rounded=0;whiteSpace=wrap;html=1;" parent="1" vertex="1">
                    <mxGeometry x="140" y="150" width="120" height="60" as="geometry"/>
                </mxCell>
                <mxCell id="11" value="" style="rounded=0;whiteSpace=wrap;html=1;" parent="1" vertex="1">
                    <mxGeometry x="340" y="180" width="260" height="210" as="geometry"/>
                </mxCell>
                <mxCell id="16" value="executor" style="rounded=0;whiteSpace=wrap;html=1;" parent="1" vertex="1">
                    <mxGeometry x="350" y="200" width="120" height="70" as="geometry"/>
                </mxCell>
                <mxCell id="21" value="create container" style="edgeStyle=none;html=1;exitX=0.5;exitY=0;exitDx=0;exitDy=0;entryX=0.5;entryY=1;entryDx=0;entryDy=0;" parent="1" source="17" target="16" edge="1">
                    <mxGeometry relative="1" as="geometry"/>
                </mxCell>
                <mxCell id="17" value="tasks.py" style="rounded=0;whiteSpace=wrap;html=1;" parent="1" vertex="1">
                    <mxGeometry x="350" y="310" width="120" height="60" as="geometry"/>
                </mxCell>
                <mxCell id="18" value="celery worker" style="text;html=1;align=center;verticalAlign=middle;whiteSpace=wrap;rounded=0;" parent="1" vertex="1">
                    <mxGeometry x="330" y="150" width="110" height="30" as="geometry"/>
                </mxCell>
                <mxCell id="19" value="" style="image;sketch=0;aspect=fixed;html=1;points=[];align=center;fontSize=12;image=img/lib/mscae/Docker.svg;" parent="1" vertex="1">
                    <mxGeometry x="397.80999999999995" y="240" width="24.39" height="20" as="geometry"/>
                </mxCell>
                <mxCell id="23" value="run code&lt;br&gt;with subprocess" style="ellipse;shape=cloud;whiteSpace=wrap;html=1;" parent="1" vertex="1">
                    <mxGeometry x="440" y="190" width="150" height="80" as="geometry"/>
                </mxCell>
                <mxCell id="24" style="edgeStyle=none;html=1;exitX=0.25;exitY=1;exitDx=0;exitDy=0;entryX=0.283;entryY=0.014;entryDx=0;entryDy=0;entryPerimeter=0;" parent="1" source="8" target="2" edge="1">
                    <mxGeometry relative="1" as="geometry">
                        <Array as="points">
                            <mxPoint x="140" y="240"/>
                        </Array>
                    </mxGeometry>
                </mxCell>
                <mxCell id="25" value="result/{submissionId}" style="edgeLabel;html=1;align=center;verticalAlign=middle;resizable=0;points=[];" parent="24" vertex="1" connectable="0">
                    <mxGeometry x="-0.0804" y="-2" relative="1" as="geometry">
                        <mxPoint as="offset"/>
                    </mxGeometry>
                </mxCell>
                <mxCell id="26" value="&lt;h1 style=&quot;margin-top: 0px;&quot;&gt;Submit&lt;/h1&gt;&lt;p&gt;Submit が来ると、task が作成されて celery worker に投げられる。celery worker 内では executor を使って実行。&lt;/p&gt;&lt;p&gt;&lt;br&gt;&lt;/p&gt;" style="text;html=1;whiteSpace=wrap;overflow=hidden;rounded=0;" vertex="1" parent="1">
                    <mxGeometry x="100" y="40" width="260" height="100" as="geometry"/>
                </mxCell>
            </root>
        </mxGraphModel>
    </diagram>
</mxfile>